<?xml version="1.0" standalone="no"?>
<!DOCTYPE svg PUBLIC "-//W3C//DTD SVG 20010904//EN"
 "http://www.w3.org/TR/2001/REC-SVG-20010904/DTD/svg10.dtd">
<svg version="1.0" xmlns="http://www.w3.org/2000/svg"
 width="1200.000000pt" height="1200.000000pt" viewBox="0 0 1200.000000 1200.000000"
 preserveAspectRatio="xMidYMid meet">

<g transform="translate(0.000000,1200.000000) scale(0.100000,-0.100000)"
fill="#000000" stroke="none">
<path d="M5515 10788 c-1169 -40 -2325 -575 -3118 -1443 -457 -500 -781 -1062
-986 -1707 -270 -850 -270 -1836 0 -2686 317 -998 938 -1826 1799 -2396 222
-148 312 -199 541 -310 899 -434 1905 -554 2894 -345 1130 238 2142 925 2794
1897 110 163 190 302 290 502 239 479 375 940 443 1500 31 253 31 747 0 1000
-87 716 -307 1336 -682 1924 -466 733 -1159 1328 -1954 1681 -645 285 -1295
409 -2021 383z m410 -598 c1222 -91 2330 -738 3012 -1760 218 -327 398 -714
506 -1090 108 -374 168 -818 153 -1138 -39 -843 -336 -1637 -854 -2292 -721
-910 -1782 -1452 -2947 -1506 -416 -19 -985 81 -1435 253 -515 197 -965 484
-1364 873 -413 402 -734 891 -939 1430 -187 490 -279 1055 -249 1523 102 1559
1094 2906 2552 3460 506 193 1076 283 1565 247z"/>
<path d="M5400 8100 l0 -300 23 0 c55 0 67 10 67 54 0 30 3 37 10 26 7 -11 8
-5 4 20 -4 26 -3 31 5 20 9 -13 11 -13 11 0 0 15 16 17 66 11 11 -1 38 -45 39
-65 1 -6 6 -23 13 -38 l12 -28 175 0 175 0 0 300 0 300 -300 0 -300 0 0 -300z
m85 -186 c-2 -25 -25 -49 -25 -26 0 6 -9 14 -20 17 -23 7 -17 23 14 35 28 10
32 7 31 -26z"/>
<path d="M5400 5975 l0 -1225 -280 0 -280 0 0 -150 c0 -146 1 -150 19 -140 28
15 68 12 96 -6 l24 -15 -22 -37 c-12 -20 -26 -40 -32 -44 -36 -25 -45 -34 -45
-45 0 -9 7 -10 27 -2 26 9 49 -4 38 -22 -8 -13 -58 -6 -74 10 -15 15 -15 17 4
33 18 16 18 17 2 18 -21 0 -46 -48 -30 -58 6 -4 13 -17 17 -29 6 -17 3 -23 -8
-23 -9 0 -16 -9 -16 -20 0 -20 7 -20 880 -20 l880 0 0 275 0 275 -300 0 -300
0 0 1225 0 1225 -300 0 -300 0 0 -1225z m447 -525 c68 -32 86 -85 51 -153 -13
-25 -115 -14 -141 15 -14 17 -25 19 -56 14 -36 -5 -39 -4 -44 19 -2 14 0 28 4
31 5 3 9 16 9 29 0 28 6 33 68 50 65 17 63 17 109 -5z m-898 -1214 c-3 -3 -11
5 -18 17 -13 21 -12 21 5 5 10 -10 16 -20 13 -22z"/>
</g>
</svg>
